<?xml version="1.0" standalone="no"?><!-- Generator: Gravit.io --><svg xmlns="http://www.w3.org/2000/svg" xmlns:xlink="http://www.w3.org/1999/xlink" style="isolation:isolate" viewBox="0 0 500 500" width="500" height="500"><defs><clipPath id="_clipPath_TVE3UVLOF86lz6CfK6BXAKW5gwdjzbo4"><rect width="500" height="500"/></clipPath></defs><g clip-path="url(#_clipPath_TVE3UVLOF86lz6CfK6BXAKW5gwdjzbo4)"><rect x="16" y="11" width="500" height="500" transform="matrix(1,0,0,1,0,0)" fill="none"/><clipPath id="_clipPath_JklSW5hdDa1DzUci3ZvJmGxO8Yu1Vs3u"><rect x="0" y="0" width="500" height="500" transform="matrix(1,0,0,1,0,0)" fill="rgb(255,255,255)"/></clipPath><g clip-path="url(#_clipPath_JklSW5hdDa1DzUci3ZvJmGxO8Yu1Vs3u)"><g id="Group"><g id="Group"><path d=" M 129.955 102.673 C 118.786 102.673 108.7 110.182 101.554 123.817 C 95.209 135.926 91.714 151.871 91.714 168.716 C 91.714 185.561 95.209 201.507 101.554 213.615 C 108.7 227.251 118.787 234.759 129.955 234.759 C 141.123 234.759 151.21 227.251 158.355 213.615 C 164.7 201.507 168.195 185.561 168.195 168.716 C 168.195 151.871 164.7 135.926 158.355 123.817 C 151.21 110.182 141.124 102.673 129.955 102.673 Z  M 145.367 207.419 C 140.875 215.989 135.258 220.904 129.955 220.904 C 124.652 220.904 119.035 215.989 114.543 207.419 C 109.187 197.197 106.236 183.452 106.236 168.716 C 106.236 153.981 109.186 140.236 114.543 130.013 C 119.035 121.443 124.652 116.528 129.955 116.528 C 135.258 116.528 140.875 121.443 145.366 130.013 C 150.724 140.236 153.674 153.981 153.674 168.716 C 153.674 183.452 150.724 197.197 145.367 207.419 Z " fill="rgb(0,0,0)"/><g id="Group"><path d=" M 462.359 160.413 C 461.136 123.072 452.116 88.167 436.65 61.338 C 419.225 31.109 395.571 14.462 370.047 14.462 L 129.955 14.462 C 104.431 14.462 80.777 31.109 63.352 61.338 C 46.682 90.256 37.5 128.555 37.5 169.178 C 37.5 209.802 46.681 248.1 63.352 277.019 C 80.777 307.247 104.431 323.895 129.955 323.895 C 131.86 323.895 133.753 323.79 135.635 323.606 C 136.29 323.791 136.981 323.895 137.7 323.895 L 184.169 323.895 C 188.179 323.895 191.43 320.793 191.43 316.967 C 191.43 313.141 188.179 310.039 184.169 310.039 L 168.679 310.039 C 179.025 302.166 188.464 291.061 196.558 277.019 C 200.84 269.591 204.624 261.542 207.888 252.997 L 207.888 318.073 C 207.888 320.61 209.341 322.943 211.676 324.156 C 214.012 325.37 216.856 325.267 219.088 323.892 L 239.132 311.539 L 259.187 323.893 C 261.584 325.369 264.665 325.37 267.062 323.893 L 287.13 311.537 L 307.198 323.893 C 308.397 324.631 309.765 324.999 311.134 324.999 C 312.505 324.999 313.876 324.63 315.075 323.891 L 335.114 311.539 L 355.179 323.893 C 357.576 325.368 360.655 325.369 363.052 323.893 L 383.123 311.537 L 403.2 323.893 C 405.595 325.367 408.671 325.367 411.067 323.895 L 431.187 311.532 L 451.308 323.895 C 453.542 325.268 456.382 325.366 458.716 324.153 C 461.049 322.939 462.5 320.606 462.5 318.072 L 462.5 161.788 C 462.502 161.318 462.453 160.858 462.359 160.413 Z  M 183.834 270.342 C 169.077 295.941 149.943 310.039 129.955 310.039 C 109.967 310.039 90.832 295.941 76.075 270.342 C 60.564 243.434 52.022 207.506 52.022 169.178 C 52.022 130.85 60.564 94.923 76.075 68.014 C 90.833 42.415 109.967 28.317 129.955 28.317 C 149.943 28.317 169.077 42.415 183.834 68.014 C 199.345 94.923 207.888 130.85 207.888 169.178 C 207.888 207.506 199.345 243.434 183.834 270.342 Z  M 435.121 297.469 C 432.726 295.998 429.653 295.998 427.258 297.469 L 407.14 309.831 L 387.06 297.472 C 384.663 295.997 381.583 295.998 379.188 297.472 L 359.117 309.827 L 339.049 297.472 C 336.651 295.995 333.569 295.996 331.172 297.474 L 311.133 309.826 L 291.067 297.472 C 288.67 295.996 285.591 295.996 283.194 297.472 L 263.127 309.826 L 243.069 297.472 C 240.671 295.995 237.59 295.995 235.192 297.473 L 222.41 305.352 L 222.41 264.779 L 230.639 264.779 C 234.649 264.779 237.9 261.677 237.9 257.851 C 237.9 254.026 234.649 250.924 230.639 250.924 L 222.41 250.924 L 222.41 161.789 C 222.41 161.308 222.357 160.837 222.26 160.384 C 221.033 123.053 212.02 88.16 196.558 61.337 C 188.464 47.296 179.025 36.191 168.679 28.317 L 370.047 28.317 C 390.035 28.317 409.169 42.415 423.926 68.014 C 439.438 94.923 447.98 130.85 447.98 169.178 L 447.98 250.924 L 447.496 250.924 C 443.486 250.924 440.235 254.026 440.235 257.851 C 440.235 261.677 443.486 264.779 447.496 264.779 L 447.98 264.779 L 447.98 305.371 L 435.121 297.469 Z " fill="rgb(0,0,0)"/></g><path d=" M 277.108 250.462 L 261.618 250.462 C 257.608 250.462 254.357 253.564 254.357 257.389 C 254.357 261.215 257.608 264.317 261.618 264.317 L 277.108 264.317 C 281.118 264.317 284.369 261.215 284.369 257.389 C 284.369 253.564 281.118 250.462 277.108 250.462 Z " fill="none"/><path d=" M 323.578 250.462 L 308.088 250.462 C 304.078 250.462 300.827 253.564 300.827 257.389 C 300.827 261.215 304.078 264.317 308.088 264.317 L 323.578 264.317 C 327.588 264.317 330.838 261.215 330.838 257.389 C 330.838 253.564 327.588 250.462 323.578 250.462 Z " fill="none"/><path d=" M 370.047 250.462 L 354.557 250.462 C 350.547 250.462 347.296 253.564 347.296 257.389 C 347.296 261.215 350.547 264.317 354.557 264.317 L 370.047 264.317 C 374.057 264.317 377.308 261.215 377.308 257.389 C 377.308 253.564 374.057 250.462 370.047 250.462 Z " fill="none"/><path d=" M 416.516 250.462 L 401.027 250.462 C 397.017 250.462 393.766 253.564 393.766 257.389 C 393.766 261.215 397.017 264.317 401.027 264.317 L 416.516 264.317 C 420.526 264.317 423.777 261.215 423.777 257.389 C 423.777 253.564 420.526 250.462 416.516 250.462 Z " fill="none"/></g></g></g></g></svg>