<?xml version="1.0" standalone="no"?><!-- Generator: Gravit.io --><svg xmlns="http://www.w3.org/2000/svg" xmlns:xlink="http://www.w3.org/1999/xlink" style="isolation:isolate" viewBox="0 0 500 500" width="500" height="500"><defs><clipPath id="_clipPath_oOJsn8OXPS5sirZDcnPm2gjLcpDIlalN"><rect width="500" height="500"/></clipPath></defs><g clip-path="url(#_clipPath_oOJsn8OXPS5sirZDcnPm2gjLcpDIlalN)"><g id="Group"><path d=" M 129.955 102.673 C 118.786 102.673 108.7 110.182 101.554 123.817 C 95.209 135.926 91.714 151.871 91.714 168.716 C 91.714 185.561 95.209 201.507 101.554 213.615 C 108.7 227.251 118.787 234.759 129.955 234.759 C 141.123 234.759 151.21 227.251 158.355 213.615 C 164.7 201.507 168.195 185.561 168.195 168.716 C 168.195 151.871 164.7 135.926 158.355 123.817 C 151.21 110.182 141.124 102.673 129.955 102.673 Z  M 145.367 207.419 C 140.875 215.989 135.258 220.904 129.955 220.904 C 124.652 220.904 119.035 215.989 114.543 207.419 C 109.187 197.197 106.236 183.452 106.236 168.716 C 106.236 153.981 109.186 140.236 114.543 130.013 C 119.035 121.443 124.652 116.528 129.955 116.528 C 135.258 116.528 140.875 121.443 145.366 130.013 C 150.724 140.236 153.674 153.981 153.674 168.716 C 153.674 183.452 150.724 197.197 145.367 207.419 Z " fill="rgb(0,0,0)"/><path d=" M 462.359 159.951 C 461.136 122.61 452.116 87.705 436.65 60.876 C 419.225 30.647 395.571 14 370.047 14 L 129.955 14 C 104.431 14 80.777 30.647 63.352 60.876 C 46.682 89.794 37.5 128.093 37.5 168.716 C 37.5 209.34 46.681 247.638 63.352 276.557 C 80.777 306.785 104.431 323.433 129.955 323.433 C 131.86 323.433 133.753 323.328 135.635 323.144 C 136.29 323.329 136.981 323.433 137.7 323.433 L 184.169 323.433 C 188.179 323.433 191.43 320.331 191.43 316.505 C 191.43 312.679 188.179 309.577 184.169 309.577 L 168.679 309.577 C 179.025 301.704 188.464 290.599 196.558 276.557 C 200.84 269.129 204.624 261.08 207.888 252.535 L 207.888 479.073 C 207.888 481.61 209.341 483.943 211.676 485.156 C 214.012 486.37 216.856 486.267 219.088 484.892 L 239.132 472.539 L 259.187 484.893 C 261.584 486.369 264.665 486.37 267.062 484.893 L 287.13 472.537 L 307.198 484.893 C 308.397 485.631 309.765 485.999 311.134 485.999 C 312.505 485.999 313.876 485.63 315.075 484.891 L 335.114 472.539 L 355.179 484.893 C 357.576 486.368 360.655 486.369 363.052 484.893 L 383.123 472.537 L 403.2 484.893 C 405.595 486.367 408.671 486.367 411.067 484.895 L 431.187 472.532 L 451.308 484.895 C 453.542 486.268 456.382 486.366 458.716 485.153 C 461.049 483.939 462.5 481.606 462.5 479.072 L 462.5 161.326 C 462.502 160.856 462.453 160.396 462.359 159.951 Z  M 183.834 269.88 C 169.077 295.479 149.943 309.577 129.955 309.577 C 109.967 309.577 90.832 295.479 76.075 269.88 C 60.564 242.972 52.022 207.044 52.022 168.716 C 52.022 130.388 60.564 94.461 76.075 67.552 C 90.833 41.953 109.967 27.855 129.955 27.855 C 149.943 27.855 169.077 41.953 183.834 67.552 C 199.345 94.461 207.888 130.388 207.888 168.716 C 207.888 207.044 199.345 242.972 183.834 269.88 Z  M 435.121 458.469 C 432.726 456.998 429.653 456.998 427.258 458.469 L 407.14 470.831 L 387.06 458.472 C 384.663 456.997 381.583 456.998 379.188 458.472 L 359.117 470.827 L 339.049 458.472 C 336.651 456.995 333.569 456.996 331.172 458.474 L 311.133 470.826 L 291.067 458.472 C 288.67 456.996 285.591 456.996 283.194 458.472 L 263.127 470.826 L 243.069 458.472 C 240.671 456.995 237.59 456.995 235.192 458.473 L 222.41 466.352 L 222.41 264.317 L 230.639 264.317 C 234.649 264.317 237.9 261.215 237.9 257.389 C 237.9 253.564 234.649 250.462 230.639 250.462 L 222.41 250.462 L 222.41 161.327 C 222.41 160.846 222.357 160.375 222.26 159.922 C 221.033 122.591 212.02 87.698 196.558 60.875 C 188.464 46.834 179.025 35.729 168.679 27.855 L 370.047 27.855 C 390.035 27.855 409.169 41.953 423.926 67.552 C 439.438 94.461 447.98 130.388 447.98 168.716 L 447.98 250.462 L 447.496 250.462 C 443.486 250.462 440.235 253.564 440.235 257.389 C 440.235 261.215 443.486 264.317 447.496 264.317 L 447.98 264.317 L 447.98 466.371 L 435.121 458.469 Z " fill="rgb(0,0,0)"/><path d=" M 277.108 250.462 L 261.618 250.462 C 257.608 250.462 254.357 253.564 254.357 257.389 C 254.357 261.215 257.608 264.317 261.618 264.317 L 277.108 264.317 C 281.118 264.317 284.369 261.215 284.369 257.389 C 284.369 253.564 281.118 250.462 277.108 250.462 Z " fill="rgb(0,0,0)"/><path d=" M 323.578 250.462 L 308.088 250.462 C 304.078 250.462 300.827 253.564 300.827 257.389 C 300.827 261.215 304.078 264.317 308.088 264.317 L 323.578 264.317 C 327.588 264.317 330.838 261.215 330.838 257.389 C 330.838 253.564 327.588 250.462 323.578 250.462 Z " fill="rgb(0,0,0)"/><path d=" M 370.047 250.462 L 354.557 250.462 C 350.547 250.462 347.296 253.564 347.296 257.389 C 347.296 261.215 350.547 264.317 354.557 264.317 L 370.047 264.317 C 374.057 264.317 377.308 261.215 377.308 257.389 C 377.308 253.564 374.057 250.462 370.047 250.462 Z " fill="rgb(0,0,0)"/><path d=" M 416.516 250.462 L 401.027 250.462 C 397.017 250.462 393.766 253.564 393.766 257.389 C 393.766 261.215 397.017 264.317 401.027 264.317 L 416.516 264.317 C 420.526 264.317 423.777 261.215 423.777 257.389 C 423.777 253.564 420.526 250.462 416.516 250.462 Z " fill="rgb(0,0,0)"/></g></g></svg>