<?xml version="1.0" standalone="no"?><!-- Generator: Gravit.io --><svg xmlns="http://www.w3.org/2000/svg" xmlns:xlink="http://www.w3.org/1999/xlink" style="isolation:isolate" viewBox="0 0 500 500" width="500" height="500"><defs><clipPath id="_clipPath_psFhKY37UVtYZPY0eyQ4T4LID5rmaj1v"><rect width="500" height="500"/></clipPath></defs><g clip-path="url(#_clipPath_psFhKY37UVtYZPY0eyQ4T4LID5rmaj1v)"><rect x="16" y="11" width="500" height="500" transform="matrix(1,0,0,1,0,0)" fill="none"/><clipPath id="_clipPath_9br1NYhBlLcJ0XXFrO7Yi5lw2TMHdiop"><rect x="0" y="0" width="500" height="500" transform="matrix(1,0,0,1,0,0)" fill="rgb(255,255,255)"/></clipPath><g clip-path="url(#_clipPath_9br1NYhBlLcJ0XXFrO7Yi5lw2TMHdiop)"><g id="Group"><g id="Group"><g id="Group"><g id="Group"><g id="Group"><g id="Group"><g id="Group"><g id="Group"><g id="Group"><path d=" M 428.041 167.289 C 426.956 142.398 418.951 119.131 405.226 101.247 C 389.762 81.097 368.77 70 346.119 70 L 133.049 70 C 110.398 70 89.406 81.097 73.942 101.247 C 59.149 120.523 51 146.053 51 173.131 C 51 176.129 51.1 179.107 51.297 182.061 C 52.885 205.786 60.785 227.873 73.942 245.016 C 89.406 265.166 110.398 276.263 133.049 276.263 C 134.74 276.263 136.42 276.193 138.09 276.071 C 138.671 276.194 139.284 276.263 139.923 276.263 L 181.161 276.263 C 184.72 276.263 187.605 274.195 187.605 271.645 C 187.605 269.095 184.72 267.027 181.161 267.027 L 167.415 267.027 C 176.596 261.779 184.973 254.377 192.156 245.016 C 195.956 240.065 199.314 234.7 202.211 229.004 L 202.211 272.382 C 202.211 274.073 203.5 275.629 205.573 276.437 C 207.646 277.246 210.17 277.178 212.15 276.261 L 229.938 268.027 L 247.736 276.262 C 249.863 277.246 252.598 277.246 254.725 276.262 L 272.534 268.026 L 290.344 276.262 C 291.408 276.754 292.622 276.999 293.837 276.999 C 295.053 276.999 296.27 276.753 297.334 276.261 L 315.118 268.027 L 332.924 276.262 C 335.052 277.245 337.784 277.246 339.911 276.262 L 357.723 268.026 L 375.541 276.262 C 377.666 277.244 380.396 277.244 382.522 276.263 L 400.378 268.022 L 418.234 276.263 C 420.217 277.178 422.737 277.244 424.808 276.435 C 426.879 275.626 428.166 274.071 428.166 272.382 L 428.166 218 L 428.166 168.205 C 428.168 167.892 428.125 167.585 428.041 167.289 Z  M 180.864 240.566 C 167.768 257.629 150.788 267.027 133.049 267.027 C 115.311 267.027 98.33 257.629 85.233 240.566 C 71.468 222.629 63.888 198.68 63.888 173.131 C 63.888 147.582 71.468 123.634 85.233 105.697 C 98.33 88.633 115.311 79.236 133.049 79.236 C 150.788 79.236 167.768 88.633 180.864 105.697 C 188.729 115.945 194.574 128.155 198.141 141.504 C 200.818 151.521 202.211 162.179 202.211 173.131 C 202.211 198.68 194.629 222.629 180.864 240.566 Z  M 403.869 258.648 C 401.744 257.667 399.016 257.667 396.891 258.648 L 379.037 266.888 L 361.217 258.65 C 359.09 257.667 356.357 257.667 354.231 258.65 L 336.419 266.886 L 318.61 258.65 C 316.482 257.665 313.747 257.666 311.619 258.651 L 293.836 266.885 L 276.028 258.65 C 273.901 257.666 271.168 257.666 269.041 258.65 L 251.233 266.885 L 233.432 258.65 C 231.304 257.665 228.57 257.665 226.442 258.651 L 215.098 263.903 L 215.098 236.857 L 222.401 236.857 C 225.96 236.857 228.845 234.79 228.845 232.239 C 228.845 229.69 225.96 227.622 222.401 227.622 L 215.098 227.622 L 215.098 168.206 C 215.098 167.885 215.051 167.571 214.965 167.269 C 214.477 156.109 212.599 145.276 209.438 135.109 C 205.551 122.605 199.724 111.107 192.156 101.246 C 184.973 91.887 176.596 84.484 167.415 79.236 L 346.119 79.236 C 363.857 79.236 380.838 88.633 393.934 105.697 C 400.817 114.665 406.154 125.137 409.77 136.56 C 413.386 147.983 415.281 160.357 415.281 173.131 L 415.281 227.622 L 414.851 227.622 C 411.292 227.622 408.407 229.69 408.407 232.239 C 408.407 234.79 411.292 236.857 414.851 236.857 L 415.281 236.857 L 415.281 263.915 L 403.869 258.648 Z " fill="rgb(0,0,0)"/></g></g></g></g></g></g><path d=" M 129.171 105.673 C 117.203 105.673 106.396 113.182 98.739 126.817 C 91.941 138.926 88.196 154.871 88.196 171.716 C 88.196 188.561 91.941 204.507 98.739 216.615 C 106.396 230.251 117.205 237.759 129.171 237.759 C 141.137 237.759 151.946 230.251 159.601 216.615 C 166.4 204.507 170.145 188.561 170.145 171.716 C 170.145 154.871 166.4 138.926 159.601 126.817 C 151.946 113.182 141.139 105.673 129.171 105.673 Z  M 145.685 210.419 C 140.872 218.989 134.853 223.904 129.171 223.904 C 123.489 223.904 117.47 218.989 112.657 210.419 C 106.918 200.197 103.756 186.452 103.756 171.716 C 103.756 156.981 106.917 143.236 112.657 133.013 C 117.47 124.443 123.489 119.528 129.171 119.528 C 134.853 119.528 140.872 124.443 145.684 133.013 C 151.425 143.236 154.586 156.981 154.586 171.716 C 154.586 186.452 151.425 200.197 145.685 210.419 Z " fill="rgb(0,0,0)"/></g><path d=" M 289.345 433.462 L 272.747 433.462 C 268.451 433.462 264.967 436.564 264.967 440.389 C 264.967 444.215 268.451 447.317 272.747 447.317 L 289.345 447.317 C 293.641 447.317 297.125 444.215 297.125 440.389 C 297.125 436.564 293.641 433.462 289.345 433.462 Z " fill="none"/><path d=" M 339.137 433.462 L 322.54 433.462 C 318.243 433.462 314.76 436.564 314.76 440.389 C 314.76 444.215 318.243 447.317 322.54 447.317 L 339.137 447.317 C 343.434 447.317 346.916 444.215 346.916 440.389 C 346.916 436.564 343.434 433.462 339.137 433.462 Z " fill="none"/><path d=" M 388.929 433.462 L 372.331 433.462 C 368.034 433.462 364.551 436.564 364.551 440.389 C 364.551 444.215 368.034 447.317 372.331 447.317 L 388.929 447.317 C 393.225 447.317 396.709 444.215 396.709 440.389 C 396.709 436.564 393.225 433.462 388.929 433.462 Z " fill="none"/><path d=" M 438.72 433.462 L 422.123 433.462 C 417.827 433.462 414.343 436.564 414.343 440.389 C 414.343 444.215 417.827 447.317 422.123 447.317 L 438.72 447.317 C 443.017 447.317 446.5 444.215 446.5 440.389 C 446.5 436.564 443.017 433.462 438.72 433.462 Z " fill="none"/></g></g></g><clipPath id="_clipPath_nME4TDD3nzR7qEeBlvxSdkdERb7XPcyS"><rect x="0" y="0" width="500" height="500" transform="matrix(1,0,0,1,0,0)" fill="rgb(255,255,255)"/></clipPath><g clip-path="url(#_clipPath_nME4TDD3nzR7qEeBlvxSdkdERb7XPcyS)"><g id="Group"><rect x="16" y="11" width="500" height="500" transform="matrix(1,0,0,1,0,0)" fill="none"/><clipPath id="_clipPath_Bj3MCjcnmxmiFKQgs0LHzmk4tPVKkiFV"><rect x="0" y="0" width="500" height="500" transform="matrix(1,0,0,1,0,0)" fill="rgb(255,255,255)"/></clipPath><g clip-path="url(#_clipPath_Bj3MCjcnmxmiFKQgs0LHzmk4tPVKkiFV)"><g id="Group"><g id="Group"><g id="Group"><path d=" M 277.108 250.462 L 261.618 250.462 C 257.608 250.462 254.357 253.564 254.357 257.389 C 254.357 261.215 257.608 264.317 261.618 264.317 L 277.108 264.317 C 281.118 264.317 284.369 261.215 284.369 257.389 C 284.369 253.564 281.118 250.462 277.108 250.462 Z " fill="none"/><path d=" M 323.578 250.462 L 308.088 250.462 C 304.078 250.462 300.827 253.564 300.827 257.389 C 300.827 261.215 304.078 264.317 308.088 264.317 L 323.578 264.317 C 327.588 264.317 330.838 261.215 330.838 257.389 C 330.838 253.564 327.588 250.462 323.578 250.462 Z " fill="none"/><path d=" M 370.047 250.462 L 354.557 250.462 C 350.547 250.462 347.296 253.564 347.296 257.389 C 347.296 261.215 350.547 264.317 354.557 264.317 L 370.047 264.317 C 374.057 264.317 377.308 261.215 377.308 257.389 C 377.308 253.564 374.057 250.462 370.047 250.462 Z " fill="none"/><path d=" M 416.516 250.462 L 401.027 250.462 C 397.017 250.462 393.766 253.564 393.766 257.389 C 393.766 261.215 397.017 264.317 401.027 264.317 L 416.516 264.317 C 420.526 264.317 423.777 261.215 423.777 257.389 C 423.777 253.564 420.526 250.462 416.516 250.462 Z " fill="none"/></g></g></g></g></g></g></g></svg>