<?xml version="1.0" standalone="no"?><!-- Generator: Gravit.io --><svg xmlns="http://www.w3.org/2000/svg" xmlns:xlink="http://www.w3.org/1999/xlink" style="isolation:isolate" viewBox="0 0 500 500" width="500" height="500"><defs><clipPath id="_clipPath_w3ZcYj7POGHEzGKCoFNKZHeWUy2g88yI"><rect width="500" height="500"/></clipPath></defs><g clip-path="url(#_clipPath_w3ZcYj7POGHEzGKCoFNKZHeWUy2g88yI)"><clipPath id="_clipPath_VhOkYQmfsnEnhL8Hs7ZQgTI7sM4JdnJT"><rect x="0" y="0" width="500" height="500" transform="matrix(1,0,0,1,0,0)" fill="rgb(255,255,255)"/></clipPath><g clip-path="url(#_clipPath_VhOkYQmfsnEnhL8Hs7ZQgTI7sM4JdnJT)"><g id="Group"><clipPath id="_clipPath_IaT6qJSy3JTZUdGHwQu4fiRslX8lCAis"><rect x="48" y="33.5" width="434" height="411" transform="matrix(1,0,0,1,0,0)" fill="rgb(255,255,255)"/></clipPath><g clip-path="url(#_clipPath_IaT6qJSy3JTZUdGHwQu4fiRslX8lCAis)"><g id="Group"><g id="Group"><g id="Group"><path d=" M 130.545 231 L 369.31 229.032 M 130.545 109.968 L 369.31 108 M 377.504 108.003 C 377.581 108 377.66 108 377.738 108 C 396.647 108 412 135.116 412 168.516 C 412 201.916 396.647 229.032 377.738 229.032 C 377.426 229.032 377.116 229.025 376.805 229.016 M 92 170.484 C 92 137.084 107.353 109.968 126.262 109.968 C 145.172 109.968 160.525 137.084 160.525 170.484 C 160.525 203.884 145.172 231 126.262 231 C 107.353 231 92 203.884 92 170.484 Z " fill="none" vector-effect="non-scaling-stroke" stroke-width="12.317" stroke="rgb(0,0,0)" stroke-opacity="10000" stroke-linejoin="miter" stroke-linecap="square" stroke-miterlimit="3"/></g></g></g></g><rect x="31" y="0" width="500" height="500" transform="matrix(1,0,0,1,0,0)" fill="none"/></g></g></g></svg>