<svg xmlns="http://www.w3.org/2000/svg" xmlns:xlink="http://www.w3.org/1999/xlink" version="1.1" style="enable-background:new 0 0 511 511;" xml:space="preserve" width="511" height="511"><rect id="backgroundrect" width="100%" height="100%" x="0" y="0" fill="none" stroke="none"/>
















<g class="currentLayer" style=""><title>Layer 1</title><g id="svg_1" class="">
	<path d="M368.15428987351356,116.70888842392111 c9.438115984439742,0 17.96080752694587,6.954482058159637 23.999009319539244,19.5835956197973 C397.5149540567104,147.50743118363903 400.4682000221977,162.27618795200044 400.4682000221977,177.87821640502756 s-2.9532459654873433,30.370785221388502 -8.31490082914497,41.58573236130912 C386.11509740045943,232.09306232797428 377.59158778427866,239.04754438613395 368.15428987351356,239.04754438613395 s-17.96080752694587,-6.954482058159637 -23.999009319539244,-19.5835956197973 C338.7936256903167,208.24900162641603 335.84037972482935,193.48024485805462 335.84037972482935,177.87821640502756 s2.9532459654873433,-30.370785221388502 8.31490082914497,-41.58573236130912 C350.19348234656775,123.66337048208077 358.71617388907384,116.70888842392111 368.15428987351356,116.70888842392111 zM355.13055697308187,213.7251536321092 C358.9264188234589,221.66262251334985 363.67288228377953,226.21481823625146 368.15428987351356,226.21481823625146 s9.227871050054633,-4.55219572290164 13.022914826757065,-12.489664604142273 C385.70360634211033,204.25716827872594 388.1970949024443,191.52624842296586 388.1970949024443,177.87821640502756 s-2.492670486659262,-26.378951873698394 -7.019890202173652,-35.84693722708168 C377.3821609235682,134.09381029670521 372.63569746324754,129.54161457380354 368.15428987351356,129.54161457380354 s-9.227871050054633,4.55219572290164 -13.022914826757065,12.489664604142273 C350.6041553312421,151.49926453132915 348.11148484458283,164.2301843870892 348.11148484458283,177.87821640502756 S350.6041553312421,204.25716827872594 355.13055697308187,213.7251536321092 z" id="svg_2"/>
	<path d="M87.26705753500667,169.76023384261185 c1.0332270510832446,-34.58590800408656 8.655219477799468,-66.91496723594712 21.723946430336945,-91.76425815257954 C123.71551203537315,49.99838929129545 143.70350612810236,34.57944106467333 165.27201856025573,34.57944106467333 h202.88227131325786 c21.568512432153398,0 41.556506524882565,15.418948226622113 56.28101459491211,43.41653462535901 C438.5217150722281,104.78044171006705 446.28032580261083,140.25266333357217 446.28032580261083,177.87821640502756 s-7.7577926567081645,73.0977746949605 -21.845021334185176,99.88224071499518 C409.7107963983961,305.7580435187596 389.72280230566696,321.17699174538177 368.15428987351356,321.17699174538177 c-1.6099689917116589,0 -3.209303025652866,-0.09667320366244801 -4.7996382491729195,-0.2669207039175557 c-0.5538358777382083,0.17110301533176656 -1.1379404814384746,0.2669207039175557 -1.7449511480289477,0.2669207039175557 h-39.2675363832112 c-3.3884611604012664,0 -6.13555255987675,-2.8728196274203546 -6.13555255987675,-6.416363074941232 s2.747091399475485,-6.416363074941232 6.13555255987675,-6.416363074941232 h13.089178794403733 c-8.741935287312394,-7.292410513439876 -16.71815361515217,-17.578268280109004 -23.55806760890277,-30.583808475476552 c-3.618339862977982,-6.8791967314136615 -6.815371783511094,-14.335010624495373 -9.57391621443168,-22.249380598666217 V465.33128216239476 c0,2.350099915581809 -1.2279285856500004,4.511130999222016 -3.2011222889063635,5.634422294875062 c-1.974011776931014,1.1241468107297037 -4.376694159378748,1.0291846372205733 -6.263172053122187,-0.24467731192442604 l-16.937397359958428,-11.440803120158547 l-16.947214244054233,11.441658635235209 c-2.025550418433977,1.3671130925008121 -4.62866085117102,1.367968607577471 -6.654211269604999,0 l-16.957849201824686,-11.443369665388522 l-16.957849201824686,11.443369665388522 c-1.0127752092169895,0.6835565462504063 -2.169531385172419,1.0249070618372795 -3.3262875611278484,1.0249070618372795 c-1.1583923233047309,0 -2.31678464660946,-0.3422060306635331 -3.3295598558264485,-1.026618091990597 l-16.93330699158518,-11.439947605081887 l-16.955394980800733,11.441658635235209 c-2.025550418433977,1.3662575774241539 -4.627842777496369,1.3671130925008121 -6.653393195930347,0 l-16.960303422848632,-11.444225180465184 l-16.96521186489654,11.444225180465184 c-2.0239142710846774,1.3654020623474947 -4.622934335448468,1.3654020623474947 -6.647666680207795,0.0025665452299764983 l-17.0020251802558,-11.451069301078453 l-17.0020251802558,11.451069301078453 c-1.8881140410927384,1.2712954039150228 -4.288342202516523,1.3619800020408594 -6.259899758423587,0.2386887063878142 c-1.9715575559070628,-1.1241468107297037 -3.1978499942077616,-3.2851778943699115 -3.1978499942077616,-5.632711264721742 v-294.29718637063786 C87.14598263115845,170.5977831026609 87.18770438856555,170.1717365944848 87.26705753500667,169.76023384261185 zM322.62521758452954,271.5767941459327 C335.095114607223,295.28653898045553 351.26434078668484,308.3442655954993 368.15428987351356,308.3442655954993 s33.05917526629058,-13.05772661504374 45.52907228898409,-36.767471449566585 C426.7905385777437,246.65392893270763 434.0092206828573,213.37781451098573 434.0092206828573,177.87821640502756 s-7.218682105113659,-68.7757125276801 -20.325858520359695,-93.69857774090515 C401.2126470661296,60.46989382959953 385.04423896034234,47.412167214555794 368.15428987351356,47.412167214555794 s-33.05917526629058,13.05772661504374 -45.52907228898409,36.767471449566585 C309.5180411692835,109.10250387734743 302.29935906416983,142.37861829906933 302.29935906416983,177.87821640502756 S309.5180411692835,246.65392893270763 322.62521758452954,271.5767941459327 zM110.28356037129103,446.2481628624429 c2.0239142710846774,-1.3628355171175177 4.6204801144245184,-1.3628355171175177 6.6443943855091945,0 l16.999570959231846,11.449358270925137 l16.96848415959514,-11.446791725695162 c2.025550418433977,-1.3662575774241539 4.627842777496369,-1.3654020623474947 6.651757048581047,0 l16.960303422848632,11.443369665388522 l16.957849201824686,-11.443369665388522 c2.026368492108628,-1.367968607577471 4.631115072194971,-1.3671130925008121 6.655847416954297,0.0017110301533176662 l16.93330699158518,11.440803120158547 l16.956213054475384,-11.442514150311863 c2.025550418433977,-1.3671130925008121 4.627842777496369,-1.3671130925008121 6.653393195930347,0 l16.95703112815004,11.442514150311863 l16.948850391403532,-11.442514150311863 c2.026368492108628,-1.367968607577471 4.63029699852032,-1.367968607577471 6.656665490628948,0.0008555150766588328 L290.02825394441635,453.5491285266493 V266.42402683921654 h-6.9536262345269835 c-3.3884611604012664,0 -6.13555255987675,-2.8728196274203546 -6.13555255987675,-6.416363074941232 s2.747091399475485,-6.416363074941232 6.13555255987675,-6.416363074941232 H290.02825394441635 v-82.55720489757721 c0,-0.44572335493925136 0.04417597843111267,-0.881180528958596 0.12680141957078633,-1.3012384315980818 c1.036499345781846,-34.57649733824331 8.652765256775517,-66.8944348741073 21.718219914614394,-91.7377371852031 C318.71318927235205,64.9904354946648 326.68940760019194,54.70457772799568 335.43134288750423,47.412167214555794 h-170.15932432724853 c-16.889949086828718,0 -33.05917526629058,13.05772661504374 -45.52907228898409,36.767471449566585 C106.63576985602563,109.10250387734743 99.41708775091199,142.37861829906933 99.41708775091199,177.87821640502756 V253.59130068933405 h0.40903683732511714 c3.3884611604012664,0 6.13555255987675,2.8728196274203546 6.13555255987675,6.416363074941232 s-2.747091399475485,6.416363074941232 -6.13555255987675,6.416363074941232 h-0.40903683732511714 v187.14306750404262 L110.28356037129103,446.2481628624429 z" id="svg_3"/>
	<path d="M243.80709132667815,253.59130068933405 h13.089178794403733 c3.3884611604012664,0 6.13555255987675,2.8728196274203546 6.13555255987675,6.416363074941232 s-2.747091399475485,6.416363074941232 -6.13555255987675,6.416363074941232 h-13.089178794403733 c-3.3884611604012664,0 -6.13555255987675,-2.8728196274203546 -6.13555255987675,-6.416363074941232 S240.41863016627684,253.59130068933405 243.80709132667815,253.59130068933405 z" id="svg_4"/>
	<path d="M204.53955494346692,253.59130068933405 h13.089178794403733 c3.3884611604012664,0 6.13555255987675,2.8728196274203546 6.13555255987675,6.416363074941232 s-2.747091399475485,6.416363074941232 -6.13555255987675,6.416363074941232 h-13.089178794403733 c-3.3884611604012664,0 -6.13555255987675,-2.8728196274203546 -6.13555255987675,-6.416363074941232 S201.15109378306562,253.59130068933405 204.53955494346692,253.59130068933405 z" id="svg_5"/>
	<path d="M165.27201856025573,253.59130068933405 h13.089178794403733 c3.3884611604012664,0 6.13555255987675,2.8728196274203546 6.13555255987675,6.416363074941232 s-2.747091399475485,6.416363074941232 -6.13555255987675,6.416363074941232 h-13.089178794403733 c-3.3884611604012664,0 -6.13555255987675,-2.8728196274203546 -6.13555255987675,-6.416363074941232 S161.88355739985442,253.59130068933405 165.27201856025573,253.59130068933405 z" id="svg_6"/>
	<path d="M126.00448217704457,253.59130068933405 h13.089178794403733 c3.3884611604012664,0 6.13555255987675,2.8728196274203546 6.13555255987675,6.416363074941232 s-2.747091399475485,6.416363074941232 -6.13555255987675,6.416363074941232 h-13.089178794403733 c-3.3884611604012664,0 -6.13555255987675,-2.8728196274203546 -6.13555255987675,-6.416363074941232 S122.61602101664323,253.59130068933405 126.00448217704457,253.59130068933405 z" id="svg_7"/>
</g><path fill="#eb1a1a" fill-opacity="1" stroke="#eb1a1a" stroke-opacity="1" stroke-width="10" stroke-dasharray="none" stroke-linejoin="miter" stroke-linecap="butt" stroke-dashoffset="" fill-rule="nonzero" opacity="1" marker-start="" marker-mid="" marker-end="" d="M223.72429520592988,114.29159192270095 L274.1915824516172,172.2355143158975 " class="" id="svg_42"/><path fill="#eb1a1a" fill-opacity="1" stroke="#eb1a1a" stroke-opacity="1" stroke-width="10" stroke-dasharray="none" stroke-linejoin="miter" stroke-linecap="butt" stroke-dashoffset="" fill-rule="nonzero" opacity="1" marker-start="" marker-mid="" marker-end="" d="M217.1822456297097,165.6934581480877 L282.6028031704155,116.16075029583902 " class="" id="svg_44"/><g id="svg_8">
</g><g id="svg_9">
</g><g id="svg_10">
</g><g id="svg_11">
</g><g id="svg_12">
</g><g id="svg_13">
</g><g id="svg_14">
</g><g id="svg_15">
</g><g id="svg_16">
</g><g id="svg_17">
</g><g id="svg_18">
</g><g id="svg_19">
</g><g id="svg_20">
</g><g id="svg_21">
</g><g id="svg_22">
</g><path fill="#eb1a1a" fill-opacity="1" stroke="#eb1a1a" stroke-opacity="1" stroke-width="10" stroke-dasharray="none" stroke-linejoin="miter" stroke-linecap="butt" stroke-dashoffset="" fill-rule="nonzero" opacity="1" marker-start="" marker-mid="" marker-end="" d="M134.00467545495331,108.68411378091628L184.47196270064063,166.62803617411282" id="svg_23" class=""/><path fill="#eb1a1a" fill-opacity="1" stroke="#eb1a1a" stroke-opacity="1" stroke-width="10" stroke-dasharray="none" stroke-linejoin="miter" stroke-linecap="butt" stroke-dashoffset="" fill-rule="nonzero" opacity="1" marker-start="" marker-mid="" marker-end="" d="M134.00467545495331,108.68411378091628 L184.47196270064063,166.62803617411282 " class="" id="svg_25"/><path fill="#eb1a1a" fill-opacity="1" stroke="#eb1a1a" stroke-opacity="1" stroke-width="10" stroke-dasharray="none" stroke-linejoin="miter" stroke-linecap="butt" stroke-dashoffset="" fill-rule="nonzero" opacity="1" marker-start="" marker-mid="" marker-end="" d="M126.52804030744407,162.8897186003582L191.94859784814986,113.35701074810954" id="svg_24" class=""/><path fill="#eb1a1a" fill-opacity="1" stroke="#eb1a1a" stroke-opacity="1" stroke-width="10" stroke-dasharray="none" stroke-linejoin="miter" stroke-linecap="butt" stroke-dashoffset="" fill-rule="nonzero" opacity="1" marker-start="" marker-mid="" marker-end="" d="M126.52804030744407,162.8897186003582 L191.94859784814986,113.35701074810954 " class="" id="svg_26"/><path fill="none" fill-opacity="1" stroke="#eb1a1a" stroke-opacity="1" stroke-width="10" stroke-dasharray="none" stroke-linejoin="miter" stroke-linecap="butt" stroke-dashoffset="" fill-rule="nonzero" opacity="1" marker-start="" marker-mid="" marker-end="" d="M148,210 C148,193.97790055248618 171.04696132596686,181 199.5,181 C227.95303867403314,181 251,193.97790055248618 251,210 C251,226.02209944751382 227.95303867403314,239 199.5,239 C171.04696132596686,239 148,226.02209944751382 148,210 Z" id="svg_28"/></g></svg>